<svg id="Layer_1" data-name="Layer 1" xmlns="http://www.w3.org/2000/svg" viewBox="0 0 619.92 263.45"><defs><style>.cls-1{fill:#fff;}.cls-2{fill:none;}.cls-3{isolation:isolate;}.cls-4{fill:#ff0068;}</style></defs><g id="Слой_1" data-name="Слой 1"><g id="Слой_4" data-name="Слой 4"><path class="cls-1" d="M298.7,419.2H231a19.12,19.12,0,0,0-19.1,19.1v67.6A19.12,19.12,0,0,0,231,525h67.6a18.75,18.75,0,0,0,13.5-5.6,18.13,18.13,0,0,0,5.7-13.5V438.3a18.13,18.13,0,0,0-5.7-13.5A18.52,18.52,0,0,0,298.7,419.2Zm3.1,84.5c0,2.2-.3,3.6-1,4.3s-2.2,1.1-4.4,1.1H233.3c-2.2,0-3.6-.4-4.3-1.1s-1.1-2.2-1.1-4.3V440.5c0-2.1.4-3.6,1.1-4.3s2.2-1.1,4.3-1.1h63.1c2.2,0,3.7.4,4.4,1.1s1,2.2,1,4.3Z" transform="translate(-195.37 -419.1)"/><polygon class="cls-1" points="161.13 68.3 177.33 68.3 177.33 52.1 161.13 52.1 161.13 68.3"/><path class="cls-1" d="M420.5,419.4H333.9V525h15.9V487.4h0V440.6c0-2.1.4-3.6,1.1-4.3s2.2-1.1,4.3-1.1h63.1c2.2,0,3.7.4,4.4,1.1s1,2.2,1,4.3V466c0,2.2-.3,3.6-1,4.3s-2.2,1-4.4,1H379.4v16.1l41.1-.1a18.51,18.51,0,0,0,13.6-5.7,18.29,18.29,0,0,0,5.7-13.5V438.4a18.45,18.45,0,0,0-5.7-13.5A18.72,18.72,0,0,0,420.5,419.4Z" transform="translate(-195.37 -419.1)"/><rect class="cls-1" x="344.43" y="90.1" width="16" height="15.9"/><path class="cls-1" d="M455.8,424.8a18.42,18.42,0,0,0-5.6,13.5v67.6A19.12,19.12,0,0,0,469.3,525H533V509.1H471.5c-2.2,0-3.6-.4-4.3-1.1s-1.1-2.2-1.1-4.3V440.5c0-2.1.4-3.6,1.1-4.3s2.2-1.1,4.3-1.1h84.2V419.2H469.3A18.42,18.42,0,0,0,455.8,424.8Z" transform="translate(-195.37 -419.1)"/><path class="cls-1" d="M657.9,419.2h-64v15.9h61.8c2.2,0,3.7.4,4.4,1.1s1,2.2,1,4.3v63.2c0,2.2-.3,3.6-1,4.3s-2.2,1.1-4.4,1.1H592.6c-2.2,0-3.6-.4-4.3-1.1s-1.1-2.2-1.1-4.3V419.1H571.3V525h86.6a18.81,18.81,0,0,0,13.6-5.6,18.13,18.13,0,0,0,5.7-13.5V438.3a18.13,18.13,0,0,0-5.7-13.5A18.81,18.81,0,0,0,657.9,419.2Z" transform="translate(-195.37 -419.1)"/><rect class="cls-1" x="552.33" y="45.1" width="27.4" height="15.9"/><polygon class="cls-1" points="514.63 61 545.63 61 545.63 45.1 514.63 45.1 514.63 16 572.63 16 572.63 0.1 498.53 0.1 498.53 105.9 595.63 105.9 595.63 90.1 514.63 90.1 514.63 61"/><rect class="cls-1" x="579.33" y="0.1" width="16.3" height="15.9"/></g></g><g id="Слой_2" data-name="Слой 2"><rect class="cls-2" x="200.89" y="488.78" width="608.88" height="171.39" transform="translate(-236.64 -379.98) rotate(-4.26)"/><g class="cls-3"><path class="cls-4" d="M483.49,529.62c.85-.06,1.62.55,2.32,1.81a21.37,21.37,0,0,1,1.8,4.53,51,51,0,0,1,1.21,5.45c.32,1.87.52,3.4.6,4.57a47.31,47.31,0,0,1-.72,12.31A34.11,34.11,0,0,1,485,568.65a1.24,1.24,0,0,1-1,.63,1.69,1.69,0,0,1-1.66-.77,30.49,30.49,0,0,1-2.9-4.85,52.92,52.92,0,0,1-2.16-5.27q-.94-2.7-1.65-5.34c-.47-1.76-.87-3.45-1.19-5.09l-.14.33c0,1-.08,2.2-.11,3.7s-.11,3-.26,4.39a18.29,18.29,0,0,1-.71,3.7c-.33,1-.76,1.57-1.29,1.61a1.86,1.86,0,0,1-1.36-.51,6,6,0,0,1-1.13-1.37,15.56,15.56,0,0,1-.93-1.78c-.28-.65-.52-1.21-.71-1.67a20.64,20.64,0,0,1-1.19,2,2.29,2.29,0,0,1-1.64,1.2,1.77,1.77,0,0,1-1.23-.4,1.42,1.42,0,0,1-.64-1.08,1.94,1.94,0,0,1,.05-.52c0-.19.11-.29.22-.3a14.53,14.53,0,0,0,1.75-2.48,9.5,9.5,0,0,0,1-2.92A50.75,50.75,0,0,1,464.38,541a1.1,1.1,0,0,1,.27-.78,1.07,1.07,0,0,1,.85-.42,1.8,1.8,0,0,1,1.75.92c.43.83.77,1.56,1,2.21s.51,1.44.77,2.36a15.89,15.89,0,0,1,.48,3,16.62,16.62,0,0,1-.22,3.87,25.55,25.55,0,0,0,1.55,3.9,40.18,40.18,0,0,0,.44-5.32c0-1.82,0-3.64,0-5.46,0-.59,0-1.29-.07-2.12a18.1,18.1,0,0,1,0-2.33,5.65,5.65,0,0,1,.44-1.87,1.22,1.22,0,0,1,1.06-.83,1.83,1.83,0,0,1,1.68,1.08,43.33,43.33,0,0,1,2.46,6.57q.94,3.39,1.82,6.69t1.93,6.49a33.29,33.29,0,0,0,2.69,6,35.18,35.18,0,0,0,2.58-9.16,46.62,46.62,0,0,0,.43-10.21,39.05,39.05,0,0,0-3.63-14.35,1.32,1.32,0,0,1-.2-.55C482.49,530.25,482.81,529.88,483.49,529.62Z" transform="translate(-195.37 -419.1)"/><path class="cls-4" d="M496.05,534a1.85,1.85,0,0,1,1.5.74,6.36,6.36,0,0,1,1.13,2,18.38,18.38,0,0,1,.74,2.48,15.3,15.3,0,0,1,.35,2.18,17.53,17.53,0,0,1-2,8.87c-.19.44-.3.72-.35.83a.74.74,0,0,0,0,.32,56.25,56.25,0,0,0,1.34,9,18.07,18.07,0,0,0,3.31,7.31,1.5,1.5,0,0,1,.55,1c.05.74-.36,1.15-1.21,1.2a2.14,2.14,0,0,1-1.31-.47,9.57,9.57,0,0,1-2.11-2.74,20.61,20.61,0,0,1-1.54-3.66,40.79,40.79,0,0,1-1-4c-.29-1.37-.52-2.64-.71-3.8-.39.45-.79,1-1.18,1.48a1.76,1.76,0,0,1-1.3.85,1.82,1.82,0,0,1-1.31-.43,1.51,1.51,0,0,1-.64-1,1.75,1.75,0,0,1,.39-.83c.26-.39.61-.87,1-1.43l1.32-1.77a17.47,17.47,0,0,0,1.27-1.94c-.1-2.24-.1-4.61,0-7.13s.28-5.21.57-8.06a.83.83,0,0,1,.32-.58A1.34,1.34,0,0,1,496.05,534Zm-2.41-18.84a1.22,1.22,0,0,1,1-.63,3.59,3.59,0,0,1,1.1.33,9.67,9.67,0,0,1,1.84,1,7.72,7.72,0,0,1,1.75,1.64,3.81,3.81,0,0,1,.87,2.19,3.85,3.85,0,0,1-.29,1.54,1.35,1.35,0,0,1-1.22,1,1.79,1.79,0,0,1-1.31-.44,1.54,1.54,0,0,1-.64-1.12,1.18,1.18,0,0,1,.19-.73,1,1,0,0,0,.2-.58q0-.31-.57-.72c-.37-.27-.77-.57-1.22-.92s-.87-.67-1.24-1a1.48,1.48,0,0,1-.58-1A.79.79,0,0,1,493.64,515.13Z" transform="translate(-195.37 -419.1)"/><path class="cls-4" d="M532.89,519.26a2.08,2.08,0,0,1,1.23.36,1.32,1.32,0,0,1,.72,1.11c0,.64-.3,1-1,1.19s-2,.43-3.43.8-3,.8-4.81,1.29-3.64,1-5.66,1.67l-6.08,1.86c-.17,1.51-.35,2.92-.56,4.21s-.4,2.49-.6,3.57c-.48,2.28-1,4.5-1.66,6.65s-1.31,4.19-2,6.11q0,.88,0,1.65c0,.5.07,1,.1,1.47q0,.4.15,1.56c.08.77.2,1.59.37,2.46a12,12,0,0,0,.64,2.28c.25.65.57,1,.94.94a7.1,7.1,0,0,0,1.87-.85,20.55,20.55,0,0,0,4.29-4.07,1.24,1.24,0,0,1,.86-.38,2.1,2.1,0,0,1,1.23.4,1.4,1.4,0,0,1,.71,1.07,1.11,1.11,0,0,1-.26.82l-1.6,1.84a17.45,17.45,0,0,1-1.84,1.81,12,12,0,0,1-2.15,1.43,6.21,6.21,0,0,1-2.44.69,3.65,3.65,0,0,1-2.41-.6,5.62,5.62,0,0,1-1.6-1.81,10.34,10.34,0,0,1-1-2.46,18.37,18.37,0,0,1-.54-2.61,19.74,19.74,0,0,1-2,2.78,1.3,1.3,0,0,1-.93.39,1.88,1.88,0,0,1-1.23-.36,1.41,1.41,0,0,1-.64-1.12,1.24,1.24,0,0,1,.05-.4,1.05,1.05,0,0,1,.22-.42,9.47,9.47,0,0,0,1.32-1.77c.43-.73.88-1.56,1.35-2.5.23-.5.47-1,.7-1.49s.46-1.05.69-1.66c0-2.18,0-4.69.09-7.5s.31-6.08.65-9.79l-7.31,2.19a2.27,2.27,0,0,1-1.31-.35,1.4,1.4,0,0,1-.72-1.12,1,1,0,0,1,.89-1.1l8.71-2.76c.24-2.8.53-5.82.86-9.08s.73-6.8,1.16-10.63a.7.7,0,0,1,.43-.71,2.55,2.55,0,0,1,.95-.26,1.68,1.68,0,0,1,1.6,1.09,29.43,29.43,0,0,1,1.47,5.15,43.8,43.8,0,0,1,.69,5.37c.08,1.17.12,2.31.12,3.44s0,2.24,0,3.37c1.15-.35,2.55-.8,4.19-1.37s3.33-1.13,5.06-1.67,3.43-1,5.11-1.44A28.4,28.4,0,0,1,532.89,519.26Zm-23.26,15.15c.25-1.09.47-2.12.67-3.1s.41-1.92.61-2.85l-1.09.4q-.39,3.79-.49,7c0-.27.08-.51.11-.73A7.24,7.24,0,0,1,509.63,534.41Zm1.3-17.41q-.57,4.61-.85,8.71l1.18-.32c.05-.91.08-1.79.1-2.65s0-1.74-.06-2.64q-.06-.79-.15-1.56C511.09,518,511,517.52,510.93,517Z" transform="translate(-195.37 -419.1)"/><path class="cls-4" d="M517.2,489.14a2.24,2.24,0,0,1,1.3.35,1.43,1.43,0,0,1,.73,1.2l.18,2.63q.24,3.51.63,8.06c.26,3,.55,6.24.86,9.64s.62,6.89.92,10.48.57,7.14.81,10.65l.35,5.11a7.17,7.17,0,0,1,2.25-2.32,4.33,4.33,0,0,1,1.17-.4,2.45,2.45,0,0,1,1.34.23,2.11,2.11,0,0,1,.89,1.18,13.31,13.31,0,0,1,.57,2.49c.15,1.06.31,2.41.47,4,.16,1.44.31,2.91.47,4.42a34.31,34.31,0,0,0,.69,4.25,4.51,4.51,0,0,0,.22.9c.14.45.31.93.5,1.45a6.42,6.42,0,0,0,.7,1.36c.26.38.53.56.8.55a4,4,0,0,0,1.36-.58,12.59,12.59,0,0,0,2.67-2.51,1.26,1.26,0,0,1,.86-.46,1.93,1.93,0,0,1,1.27.4,1.48,1.48,0,0,1,.68,1.15,2,2,0,0,1-.68,1.25,12.93,12.93,0,0,1-1.7,1.52,13.14,13.14,0,0,1-2.12,1.31,5.43,5.43,0,0,1-1.84.61,4,4,0,0,1-3.2-1,8.08,8.08,0,0,1-1.91-3.31,29.49,29.49,0,0,1-1.11-5.14c-.27-2-.51-4.12-.72-6.41,0-.64-.09-1.31-.14-2a11.81,11.81,0,0,0-.29-2c-.39.57-.83,1.25-1.31,2.06s-1,1.82-1.63,3c.08,2,.15,4.33.19,6.92s0,5.07-.09,7.42a47.47,47.47,0,0,1-.59,6q-.43,2.43-1.32,2.49a1.91,1.91,0,0,1-1.75-1,9.67,9.67,0,0,1-1.17-2.48,22.12,22.12,0,0,1-.73-3c-.18-1.06-.29-1.93-.34-2.62a26.28,26.28,0,0,1,.59-7.82,42,42,0,0,1,2.1-6.72q-.12-2.88-.28-5.92t-.38-6.07q-.68-9.81-1.66-19.53t-1.67-19.69a4.1,4.1,0,0,1,.14-1.5A.94.94,0,0,1,517.2,489.14Z" transform="translate(-195.37 -419.1)"/><path class="cls-4" d="M598,485.29a2.64,2.64,0,0,1,1.35.3,1.5,1.5,0,0,1,.84,1.15q.93,4.35,2,10.17t2.11,12.64q1.07,6.82,2.14,14.29t2.11,15q1,7.52,1.94,14.83t1.63,13.84q.72,6.53,1.26,11.94c.35,3.61.62,6.66.79,9.17a1.08,1.08,0,0,1-.34.9,1.62,1.62,0,0,1-1,.39,1.92,1.92,0,0,1-1.47-.46,1.66,1.66,0,0,1-.64-1.16q-.31-4.54-1-11.51T608,561.47q-1-8.33-2.17-17.54T603.3,525.7q-1.31-9-2.59-17.31t-2.54-14.78Q596,500.74,594.51,508T592,523.47q-1.05,8.17-1.87,17.69t-1.57,21a.91.91,0,0,1-.39.75,1.63,1.63,0,0,1-.89.38A2.21,2.21,0,0,1,586,563a1.73,1.73,0,0,1-.83-1q-1.68-4.62-3.36-11t-3.26-13.09q-1.59-6.71-3.1-13t-2.77-10.67a45.65,45.65,0,0,0-1.74,4.53q-1,3-2.16,7c-.75,2.67-1.56,5.59-2.41,8.75s-1.68,6.34-2.47,9.55-1.57,6.38-2.32,9.5-1.41,6-2,8.52c-.33,1.36-.62,2.66-.85,3.9s-.48,2.36-.74,3.34a11,11,0,0,1-.84,2.35,1.47,1.47,0,0,1-1.18.92,1.73,1.73,0,0,1-1.67-1,10,10,0,0,1-1-2.66,21.31,21.31,0,0,1-.54-3.29q-.16-1.71-.24-2.91a61.77,61.77,0,0,1-.11-6.24q.11-3.14.3-6.2c0-.69,0-1.54,0-2.53s0-1.94.09-2.85a9.09,9.09,0,0,1,.4-2.39c.22-.69.57-1,1.05-1.08a2,2,0,0,1,1.51.5,1.76,1.76,0,0,1,.69,1.2,54.9,54.9,0,0,1-.19,9.59,67,67,0,0,0-.35,9.45l.32-1.23q.74-3.25,1.59-7.12t1.86-7.95q1-4.08,2-8.2t2.1-8q2-7.27,3.42-11.42a63.24,63.24,0,0,1,2.46-6.26,7.83,7.83,0,0,1,1.74-2.65,2.72,2.72,0,0,1,1.29-.57,2.18,2.18,0,0,1,1.26.32,1.69,1.69,0,0,1,.83,1q1.1,3.06,2.36,8T579.79,529q1.4,5.79,2.87,12t3,11.7q.78-10.87,1.69-19.92t2.16-17q1.26-7.93,3-15.16t4.34-14.53A1.09,1.09,0,0,1,598,485.29Z" transform="translate(-195.37 -419.1)"/><path class="cls-4" d="M625.29,530.09a1.81,1.81,0,0,1,1.23.39,1.5,1.5,0,0,1,.64,1.16,1,1,0,0,1,0,.28.73.73,0,0,1-.17.38c-.05.05-.46.59-1.22,1.6l-2.83,3.77q-1.68,2.24-3.71,4.86c-1.35,1.75-2.62,3.34-3.81,4.75a6,6,0,0,0-.16,1.14,16.18,16.18,0,0,0,0,1.76,8.43,8.43,0,0,0,.4,2.3,4,4,0,0,0,1.47-1.35,13.29,13.29,0,0,0,1.26-2.17c.37-.8.72-1.6,1-2.4s.56-1.44.74-1.93a39.6,39.6,0,0,1,1.81-4,3.24,3.24,0,0,1,.35-.75,6.46,6.46,0,0,0,.43-.75,1.17,1.17,0,0,1,1-.55,2.4,2.4,0,0,1,.73.11,1.71,1.71,0,0,1,1.14,1.44c0,.59.13,1.31.26,2.15a12.14,12.14,0,0,0,.7,2.52,6.76,6.76,0,0,0,1.22,2.08,2.15,2.15,0,0,0,1.86.76,5.2,5.2,0,0,0,3.31-2.08,1.32,1.32,0,0,1,.93-.38,2,2,0,0,1,1.23.32,1.38,1.38,0,0,1,.64,1.16,1.27,1.27,0,0,1-.19.81,9.8,9.8,0,0,1-2.69,2.19,6.61,6.61,0,0,1-2.4.73,4.81,4.81,0,0,1-1.45-.11,6.8,6.8,0,0,1-1.15-.36,8.56,8.56,0,0,1-4.42-4.91c-.51,1.27-.92,2.29-1.24,3a21.59,21.59,0,0,1-1,2.08,19.3,19.3,0,0,1-2.35,3.69,4.18,4.18,0,0,1-3,1.56,2.35,2.35,0,0,1-1.8-.51,4.38,4.38,0,0,1-1.11-1.53,8.57,8.57,0,0,1-.62-2.08,20.69,20.69,0,0,1-.27-2.11l-.6-.52a1.11,1.11,0,0,1-.37-.78,1.46,1.46,0,0,1,.42-.95,7.6,7.6,0,0,1,.82-.9,29.59,29.59,0,0,1,1.28-5.34,18.64,18.64,0,0,1,2.47-4.9A14.53,14.53,0,0,1,620,532,11.88,11.88,0,0,1,625.29,530.09ZM619.68,536a8.17,8.17,0,0,0-.95,1.35c-.23.45-.49,1-.77,1.66l3-4A3.54,3.54,0,0,0,619.68,536Z" transform="translate(-195.37 -419.1)"/><path class="cls-4" d="M664.11,510.26a2.2,2.2,0,0,1,1.22.36,1.34,1.34,0,0,1,.72,1.12c.05.63-.3,1-1,1.19s-2,.43-3.43.8-3.05.79-4.8,1.29-3.65,1.05-5.66,1.67L645,518.55c-.17,1.51-.35,2.91-.56,4.21s-.4,2.48-.59,3.57q-.74,3.4-1.67,6.65c-.63,2.15-1.3,4.19-2,6.11,0,.59,0,1.14,0,1.64s.07,1,.11,1.48c0,.26.06.78.14,1.55s.2,1.59.37,2.46a12.78,12.78,0,0,0,.64,2.28c.26.65.57,1,.95.94a6.88,6.88,0,0,0,1.86-.85,20.18,20.18,0,0,0,4.29-4.06,1.18,1.18,0,0,1,.86-.38,2,2,0,0,1,1.23.39,1.39,1.39,0,0,1,.72,1.08,1.09,1.09,0,0,1-.27.82l-1.6,1.83a15.72,15.72,0,0,1-1.84,1.81,11.17,11.17,0,0,1-2.15,1.43,6.16,6.16,0,0,1-2.43.69,3.54,3.54,0,0,1-2.41-.6,5.54,5.54,0,0,1-1.61-1.81,11,11,0,0,1-1-2.46,18.37,18.37,0,0,1-.54-2.61,19.18,19.18,0,0,1-2,2.78,1.3,1.3,0,0,1-.94.39,1.92,1.92,0,0,1-1.23-.36,1.38,1.38,0,0,1-.63-1.11,1.3,1.3,0,0,1,0-.41,1,1,0,0,1,.21-.42,9.15,9.15,0,0,0,1.32-1.77c.43-.72.88-1.56,1.35-2.5.24-.49.47-1,.7-1.49s.47-1.05.69-1.65q-.06-3.28.09-7.51t.65-9.78l-7.31,2.18a2.24,2.24,0,0,1-1.3-.35,1.32,1.32,0,0,1-.72-1.11,1,1,0,0,1,.89-1.11l8.71-2.76q.34-4.18.86-9.08T640.09,498a.7.7,0,0,1,.44-.71,2.35,2.35,0,0,1,.94-.27,1.67,1.67,0,0,1,1.6,1.09,28.83,28.83,0,0,1,1.47,5.15,43.8,43.8,0,0,1,.69,5.37c.08,1.17.12,2.32.12,3.44s0,2.25-.05,3.37c1.15-.34,2.55-.8,4.2-1.37s3.33-1.12,5-1.67,3.43-1,5.12-1.43A27,27,0,0,1,664.11,510.26Zm-23.26,15.15c.24-1.08.47-2.12.67-3.09s.4-1.93.6-2.85l-1.09.39c-.26,2.54-.42,4.87-.48,7,0-.27.07-.52.11-.74A5.68,5.68,0,0,1,640.85,525.41ZM642.14,508q-.57,4.61-.85,8.72l1.19-.32c0-.91.07-1.8.09-2.65a23.71,23.71,0,0,0-.06-2.65c0-.53-.08-1.05-.14-1.55S642.23,508.53,642.14,508Z" transform="translate(-195.37 -419.1)"/><path class="cls-4" d="M679.67,509.2a2.15,2.15,0,0,1,1.23.35,1.4,1.4,0,0,1,.72,1.12c0,.64-.31,1-1,1.19s-2,.43-3.44.8-3,.8-4.8,1.29-3.65,1-5.66,1.67l-6.09,1.86c-.16,1.51-.35,2.91-.55,4.21s-.41,2.49-.6,3.57c-.48,2.28-1,4.49-1.67,6.65s-1.3,4.19-2,6.11a14.54,14.54,0,0,0,0,1.64c0,.51.07,1,.1,1.48,0,.27.07.78.15,1.55s.2,1.59.36,2.46a12.9,12.9,0,0,0,.64,2.29c.26.65.58,1,1,.93a6.56,6.56,0,0,0,1.87-.85,20.39,20.39,0,0,0,4.29-4.06,1.17,1.17,0,0,1,.85-.38,2.06,2.06,0,0,1,1.23.4,1.39,1.39,0,0,1,.72,1.07,1.08,1.08,0,0,1-.27.82l-1.59,1.84a19.63,19.63,0,0,1-1.84,1.81,12.55,12.55,0,0,1-2.15,1.43,6.07,6.07,0,0,1-2.44.68,3.59,3.59,0,0,1-2.41-.59,5.8,5.8,0,0,1-1.61-1.82,11,11,0,0,1-1-2.45,22.06,22.06,0,0,1-.54-2.61,20.36,20.36,0,0,1-2,2.78,1.3,1.3,0,0,1-.94.38,1.92,1.92,0,0,1-1.22-.35,1.38,1.38,0,0,1-.64-1.12,1.33,1.33,0,0,1,.05-.41.94.94,0,0,1,.21-.41,9.69,9.69,0,0,0,1.33-1.78c.43-.72.88-1.55,1.35-2.5.23-.49.46-1,.7-1.49s.46-1,.69-1.65q-.07-3.29.08-7.5t.66-9.79L646.07,522a2.2,2.2,0,0,1-1.31-.35,1.32,1.32,0,0,1-.72-1.11,1,1,0,0,1,.89-1.1l8.71-2.76c.24-2.8.52-5.83.86-9.09s.72-6.79,1.16-10.62a.69.69,0,0,1,.43-.71A2.52,2.52,0,0,1,657,496a1.68,1.68,0,0,1,1.6,1.1,29.21,29.21,0,0,1,1.48,5.15,48.19,48.19,0,0,1,.69,5.36c.08,1.18.12,2.32.11,3.44s0,2.25,0,3.38q1.73-.52,4.2-1.38c1.64-.56,3.33-1.12,5.06-1.66s3.43-1,5.11-1.44A25.9,25.9,0,0,1,679.67,509.2Zm-23.26,15.14c.25-1.08.47-2.11.67-3.09s.4-1.92.61-2.85l-1.1.4q-.37,3.8-.48,7c0-.27.07-.52.11-.73A5.79,5.79,0,0,1,656.41,524.34Zm1.29-17.41c-.37,3.08-.66,6-.84,8.72l1.18-.32c0-.91.08-1.79.1-2.65s0-1.74-.06-2.64c0-.54-.09-1.05-.15-1.56S657.79,507.46,657.7,506.93Z" transform="translate(-195.37 -419.1)"/><path class="cls-4" d="M728.07,481.74a1.36,1.36,0,0,1,.55-.12,2.39,2.39,0,0,1,1.47.38,1.6,1.6,0,0,1,.73,1.32c0,.42-.33.82-1.08,1.19s-2,1-3.72,1.82-4,2-6.93,3.61-6.43,3.68-10.63,6.38a111.27,111.27,0,0,0-10.78,7.75,77,77,0,0,0-8.32,7.83,35.09,35.09,0,0,0-5.3,7.46,12.92,12.92,0,0,0-1.63,6.73,4.29,4.29,0,0,0,2.22,3.66,14.85,14.85,0,0,0,4.8,1.67,34.19,34.19,0,0,0,5.69.53,46.26,46.26,0,0,1,5,.3q17.14,1.08,17.6,7.7.31,4.54-9.55,11.56-3,2.13-6.6,4.34c-2.41,1.48-4.7,2.82-6.86,4s-4,2.21-5.65,3a13.29,13.29,0,0,1-3,1.21,2.12,2.12,0,0,1-1.39-.43,1.6,1.6,0,0,1-.73-1.27,1.23,1.23,0,0,1,.64-1.17q1.62-.83,4.1-2.16l5.34-2.89q2.85-1.56,5.9-3.42c2-1.23,4-2.47,5.8-3.72a45.16,45.16,0,0,0,4.53-3.52,23.32,23.32,0,0,0,2.58-2.7,7.06,7.06,0,0,0,1.15-2,3.81,3.81,0,0,0,.23-1.29,1.06,1.06,0,0,0-.06-.28,1.06,1.06,0,0,1-.06-.28,4.6,4.6,0,0,0-.74-.83,6.21,6.21,0,0,0-2-1.06,27.9,27.9,0,0,0-4.08-1.05,57.28,57.28,0,0,0-6.79-.77c-1.88-.14-4-.26-6.44-.36a33,33,0,0,1-6.88-1,15.15,15.15,0,0,1-5.6-2.71,7.19,7.19,0,0,1-2.58-5.44,15.16,15.16,0,0,1,1.54-7.32,34.53,34.53,0,0,1,5.31-8,68.46,68.46,0,0,1,8.69-8.29,130.21,130.21,0,0,1,11.7-8.42q4.14-2.7,8.08-4.89t7-3.8q3-1.62,4.88-2.46C727.37,482,728,481.75,728.07,481.74Z" transform="translate(-195.37 -419.1)"/><path class="cls-4" d="M737.86,514.67A2.22,2.22,0,0,1,739,515a1.3,1.3,0,0,1,.75.95,7.47,7.47,0,0,1,.18,1.43,73.75,73.75,0,0,1,.11,8,75.36,75.36,0,0,0,.13,8.33,20.23,20.23,0,0,0,.61,4.29,10.61,10.61,0,0,0,.59,1.57,3.52,3.52,0,0,0,.65-.41,6.68,6.68,0,0,0,1.09-1.08,1.51,1.51,0,0,1,1-.39,1.88,1.88,0,0,1,1.19.36,1.46,1.46,0,0,1,.59,1.12,1,1,0,0,1-.19.74,13.36,13.36,0,0,1-1.61,1.55,3.55,3.55,0,0,1-2.07.87,3.09,3.09,0,0,1-2.41-.72,5.75,5.75,0,0,1-1.43-2.11,11.11,11.11,0,0,1-.75-2.79c-.15-1-.26-1.91-.31-2.71-.08-1.22-.15-2.53-.19-3.91s0-2.75,0-4.09q-.86,2.79-1.8,5.82a69.35,69.35,0,0,1-2.84,7.25,12.45,12.45,0,0,1-2.46,3.78,4.38,4.38,0,0,1-2.72,1.3,3.32,3.32,0,0,1-2.88-1,5.66,5.66,0,0,1-1.32-2.92,3.48,3.48,0,0,1-.55.76c-.18.17-.36.38-.56.6a1.3,1.3,0,0,1-.94.39,2.09,2.09,0,0,1-1.22-.32,1.37,1.37,0,0,1-.64-1.16,1,1,0,0,1,.19-.74,11.82,11.82,0,0,0,1.71-3.16q.89-2.22,1.67-4.8c.53-1.72,1-3.4,1.46-5s.77-2.94,1-3.91a1.1,1.1,0,0,1,1.14-.88,1.76,1.76,0,0,1,1.19.36,1.7,1.7,0,0,1,.67,1.11l0,.32a40.21,40.21,0,0,1-1,5.85,43.08,43.08,0,0,0-1,6.48c0,.75-.09,1.41-.1,2a14,14,0,0,0,0,1.48,5.73,5.73,0,0,0,.22,1.43,5.79,5.79,0,0,0,.23.55,3.67,3.67,0,0,0,1-.63,10.79,10.79,0,0,0,2.15-3.27c1.24-3,2.24-5.66,3-8.07s1.49-4.67,2.14-6.8c.57-1.8,1-3.21,1.32-4.22s.52-1.75.65-2.21.21-.8.25-1A1.15,1.15,0,0,1,737.86,514.67Z" transform="translate(-195.37 -419.1)"/><path class="cls-4" d="M748.74,516.65a1.82,1.82,0,0,1,1.5.74,6.25,6.25,0,0,1,1.13,2,18.24,18.24,0,0,1,.74,2.47,15.75,15.75,0,0,1,.35,2.18,17.59,17.59,0,0,1-2,8.88c-.19.44-.3.72-.35.82a.78.78,0,0,0,0,.33,56.42,56.42,0,0,0,1.34,9.05,18.13,18.13,0,0,0,3.31,7.31,1.42,1.42,0,0,1,.54,1q.09,1.11-1.2,1.2a2.14,2.14,0,0,1-1.31-.47,9.57,9.57,0,0,1-2.11-2.74,20.4,20.4,0,0,1-1.54-3.67,40.08,40.08,0,0,1-1-4c-.29-1.37-.52-2.63-.71-3.8-.39.46-.79,1-1.18,1.49a1.79,1.79,0,0,1-1.3.85,1.86,1.86,0,0,1-1.32-.43,1.53,1.53,0,0,1-.63-1,1.71,1.71,0,0,1,.39-.83c.26-.39.61-.87,1-1.43l1.32-1.78a17.35,17.35,0,0,0,1.27-1.93q-.15-3.36,0-7.14c.09-2.51.28-5.2.57-8,0-.16.09-.36.32-.59A1.33,1.33,0,0,1,748.74,516.65Zm-2.41-18.84a1.22,1.22,0,0,1,1-.63,3.59,3.59,0,0,1,1.1.33,10.17,10.17,0,0,1,1.84,1,8,8,0,0,1,1.75,1.65,3.81,3.81,0,0,1,.87,2.18,3.9,3.9,0,0,1-.29,1.55,1.34,1.34,0,0,1-1.22,1,1.78,1.78,0,0,1-1.31-.43,1.54,1.54,0,0,1-.64-1.12,1.18,1.18,0,0,1,.19-.73,1,1,0,0,0,.2-.58q0-.32-.57-.72c-.37-.27-.77-.57-1.22-.92s-.87-.67-1.24-1a1.44,1.44,0,0,1-.58-1A.77.77,0,0,1,746.33,497.81Z" transform="translate(-195.37 -419.1)"/><path class="cls-4" d="M764.69,523.58a4.24,4.24,0,0,1,3.16,1,4,4,0,0,1,1.44,2.87,5.06,5.06,0,0,1-.11,1.37,8.71,8.71,0,0,1-.42,1.43,3.56,3.56,0,0,1-.72,1.18,1.57,1.57,0,0,1-1,.51,2,2,0,0,1-1.27-.4,1.41,1.41,0,0,1-.68-1.07,2.43,2.43,0,0,1,.57-1.69,2.69,2.69,0,0,0,.55-1.92.83.83,0,0,0-.15-.43c-.09-.13-.29-.18-.61-.16a6.23,6.23,0,0,0-3.05,1.09,9.23,9.23,0,0,0-2.51,2.58,13,13,0,0,0-1.64,3.6,11.81,11.81,0,0,0-.44,4.16c.23,3.25,1.45,4.79,3.69,4.64a9.23,9.23,0,0,0,3.79-1.46,23.12,23.12,0,0,0,5.1-4.6,1.14,1.14,0,0,1,.85-.38,2,2,0,0,1,1.35.43,1.46,1.46,0,0,1,.68,1,1,1,0,0,1-.27.74,27,27,0,0,1-5.52,5,11,11,0,0,1-5.24,1.93,13.43,13.43,0,0,1-1.85-.08,5.6,5.6,0,0,1-2.38-.84,6.62,6.62,0,0,1-2.12-2.3,10,10,0,0,1-1.15-4.45,14.07,14.07,0,0,1,.6-5.33,13.64,13.64,0,0,1,2.23-4.29,12,12,0,0,1,3.29-2.91A8.7,8.7,0,0,1,764.69,523.58Z" transform="translate(-195.37 -419.1)"/><path class="cls-4" d="M770.29,471.79a2.24,2.24,0,0,1,1.3.35,1.43,1.43,0,0,1,.73,1.19l.18,2.64c.16,2.34.37,5,.63,8s.55,6.25.86,9.65.62,6.89.92,10.48.57,7.14.81,10.65l.35,5.11a7.17,7.17,0,0,1,2.25-2.32,4.33,4.33,0,0,1,1.17-.4,2.45,2.45,0,0,1,1.34.23,2.06,2.06,0,0,1,.88,1.18,12.46,12.46,0,0,1,.58,2.49c.15,1.06.31,2.41.47,4,.16,1.44.31,2.91.47,4.42a34.31,34.31,0,0,0,.69,4.25,4.51,4.51,0,0,0,.22.9c.14.45.31.93.5,1.45a6.42,6.42,0,0,0,.7,1.36c.26.38.53.56.8.54a3.91,3.91,0,0,0,1.36-.57,12.32,12.32,0,0,0,2.67-2.51,1.26,1.26,0,0,1,.86-.46,1.89,1.89,0,0,1,1.26.4,1.47,1.47,0,0,1,.69,1.15,2,2,0,0,1-.68,1.25,12.93,12.93,0,0,1-1.7,1.52,13.14,13.14,0,0,1-2.12,1.31,5.43,5.43,0,0,1-1.84.61,4,4,0,0,1-3.2-1,8,8,0,0,1-1.91-3.31,29.7,29.7,0,0,1-1.11-5.14c-.27-2-.51-4.12-.72-6.41,0-.64-.09-1.31-.14-2a11.81,11.81,0,0,0-.29-2c-.39.57-.83,1.25-1.31,2.06s-1,1.82-1.63,3c.08,2,.15,4.33.19,6.92s0,5.06-.09,7.42a45.48,45.48,0,0,1-.6,6c-.28,1.62-.72,2.45-1.31,2.49a1.91,1.91,0,0,1-1.75-1,9.67,9.67,0,0,1-1.17-2.48,22.12,22.12,0,0,1-.73-3c-.18-1.06-.29-1.93-.34-2.62a26.28,26.28,0,0,1,.59-7.82,42,42,0,0,1,2.1-6.72q-.12-2.88-.28-5.92t-.38-6.07q-.67-9.81-1.66-19.53T769.23,474a4,4,0,0,1,.14-1.49A.93.93,0,0,1,770.29,471.79Z" transform="translate(-195.37 -419.1)"/><path class="cls-4" d="M797,518.07a5.69,5.69,0,0,1,3.52,1,3.9,3.9,0,0,1,1.82,3.17c.1,1.54-.62,3.45-2.18,5.72a88.47,88.47,0,0,1-6.27,7.93,8.32,8.32,0,0,0,.42,1.41,7.78,7.78,0,0,0,.74,1.47,4.8,4.8,0,0,0,1,1.18,1.82,1.82,0,0,0,1.31.43,5,5,0,0,0,1.22-.29,7.77,7.77,0,0,0,1.78-1,25,25,0,0,0,2.39-1.93A35.58,35.58,0,0,0,805.9,534a1.24,1.24,0,0,1,.85-.46,1.86,1.86,0,0,1,1.32.43,1.6,1.6,0,0,1,.63,1.12.8.8,0,0,1-.27.74,33,33,0,0,1-5.53,5.27,9.47,9.47,0,0,1-4.8,1.94,5.36,5.36,0,0,1-3.85-1.22,9.71,9.71,0,0,1-2.77-4.1,10.36,10.36,0,0,1-.93-.78,1.32,1.32,0,0,1-.46-.89,1,1,0,0,1,.15-.65,6.11,6.11,0,0,1,.41-.51c-.08-.37-.15-.74-.2-1.11s-.09-.77-.12-1.2a24,24,0,0,1,.27-6,17,17,0,0,1,1.45-4.51,8.27,8.27,0,0,1,2.29-2.88A5,5,0,0,1,797,518.07Zm-3.33,9.85a12.44,12.44,0,0,0-.23,1.86c0,.65-.07,1.26-.08,1.85a45.12,45.12,0,0,0,3-3.89c.76-1.12,1.34-2.07,1.77-2.85A10,10,0,0,0,799,523a3.71,3.71,0,0,0,.2-1.18,2.76,2.76,0,0,0-.24-.58c-.16-.34-.55-.49-1.19-.44q-1.37.09-2.46,2.13A16.23,16.23,0,0,0,793.7,527.92Z" transform="translate(-195.37 -419.1)"/></g></g></svg>